<svg xmlns="http://www.w3.org/2000/svg" viewBox="0 0 1600 900" preserveAspectRatio="xMidYMid slice" role="img" aria-label="silhouettes of many people in a crowd with one figure lit in warm gold">
  <defs>
    <linearGradient id="bg" x1="0" y1="0" x2="0" y2="1">
      <stop offset="0%" stop-color="var(--hero-bg-1)"/>
      <stop offset="100%" stop-color="var(--hero-bg-3)"/>
    </linearGradient>
    <radialGradient id="lit" cx="50%" cy="55%" r="40%">
      <stop offset="0%" stop-color="var(--hero-gold)" stop-opacity="0.35"/>
      <stop offset="100%" stop-color="var(--hero-gold)" stop-opacity="0"/>
    </radialGradient>
  </defs>
  <rect width="1600" height="900" fill="url(#bg)"/>
  <line x1="0" y1="790" x2="1600" y2="790" stroke="var(--hero-edge)" stroke-opacity="0.55" stroke-width="1"/>
  <g fill="var(--hero-edge)" opacity="0.65">
    <circle cx="180" cy="630" r="18"/><rect x="164" y="648" width="32" height="140" rx="16"/>
    <circle cx="280" cy="625" r="17"/><rect x="265" y="642" width="30" height="146" rx="15"/>
    <circle cx="380" cy="632" r="18"/><rect x="364" y="650" width="32" height="138" rx="16"/>
    <circle cx="1230" cy="630" r="18"/><rect x="1214" y="648" width="32" height="140" rx="16"/>
    <circle cx="1330" cy="625" r="17"/><rect x="1315" y="642" width="30" height="146" rx="15"/>
    <circle cx="1430" cy="632" r="18"/><rect x="1414" y="650" width="32" height="138" rx="16"/>
  </g>
  <g fill="var(--hero-edge)" opacity="0.95">
    <circle cx="250" cy="660" r="24"/><rect x="228" y="682" width="44" height="106" rx="22"/>
    <circle cx="500" cy="650" r="25"/><rect x="477" y="673" width="46" height="115" rx="23"/>
    <circle cx="600" cy="660" r="23"/><rect x="579" y="681" width="42" height="107" rx="21"/>
    <circle cx="1000" cy="660" r="24"/><rect x="978" y="682" width="44" height="106" rx="22"/>
    <circle cx="1110" cy="650" r="25"/><rect x="1087" y="673" width="46" height="115" rx="23"/>
    <circle cx="1380" cy="660" r="23"/><rect x="1359" y="681" width="42" height="107" rx="21"/>
  </g>
  <circle cx="800" cy="490" r="320" fill="url(#lit)"/>
  <g fill="var(--hero-gold)">
    <circle cx="800" cy="600" r="32"/>
    <rect x="773" y="630" width="54" height="160" rx="27"/>
  </g>
  <g fill="var(--hero-bg-2)">
    <circle cx="100" cy="730" r="34"/><rect x="69" y="760" width="62" height="40" rx="31"/>
    <circle cx="1500" cy="740" r="34"/><rect x="1469" y="770" width="62" height="30" rx="31"/>
  </g>
</svg>
