<svg xmlns="http://www.w3.org/2000/svg" viewBox="0 0 1200 630" width="1200" height="630">
  <defs>
    <radialGradient id="bg" cx="50%" cy="40%" r="80%">
      <stop offset="0%" stop-color="#1a1612"/>
      <stop offset="55%" stop-color="#0e0b09"/>
      <stop offset="100%" stop-color="#050403"/>
    </radialGradient>
    <linearGradient id="gold" x1="0%" y1="0%" x2="100%" y2="0%">
      <stop offset="0%" stop-color="#c9a36a"/>
      <stop offset="100%" stop-color="#8a6a3e"/>
    </linearGradient>
  </defs>

  <rect width="1200" height="630" fill="url(#bg)"/>

  <g fill="#c9a36a" opacity="0.55">
    <circle cx="120" cy="90"  r="1.4"/>
    <circle cx="260" cy="160" r="1"/>
    <circle cx="180" cy="500" r="1.2"/>
    <circle cx="80"  cy="380" r="1"/>
    <circle cx="1080" cy="120" r="1.3"/>
    <circle cx="1140" cy="260" r="1"/>
    <circle cx="980"  cy="510" r="1.2"/>
    <circle cx="1060" cy="430" r="1"/>
    <circle cx="600"  cy="60"  r="1"/>
    <circle cx="600"  cy="580" r="1"/>
  </g>

  <g fill="#a89880" opacity="0.25">
    <circle cx="340" cy="220" r="0.8"/>
    <circle cx="900" cy="200" r="0.8"/>
    <circle cx="380" cy="460" r="0.8"/>
    <circle cx="860" cy="450" r="0.8"/>
    <circle cx="520" cy="510" r="0.7"/>
    <circle cx="720" cy="120" r="0.7"/>
  </g>

  <line x1="380" y1="240" x2="820" y2="240" stroke="url(#gold)" stroke-width="0.7" opacity="0.5"/>

  <text x="600" y="320"
        text-anchor="middle"
        font-family="Georgia, 'Times New Roman', serif"
        font-size="84"
        font-weight="400"
        fill="#f5ecdc"
        letter-spacing="2">virtue of vague</text>

  <line x1="500" y1="370" x2="700" y2="370" stroke="url(#gold)" stroke-width="0.8" opacity="0.6"/>

  <text x="600" y="430"
        text-anchor="middle"
        font-family="Georgia, 'Times New Roman', serif"
        font-style="italic"
        font-size="28"
        fill="#a89880"
        letter-spacing="1">the less you know, more you believe</text>

  <text x="600" y="568"
        text-anchor="middle"
        font-family="Georgia, 'Times New Roman', serif"
        font-size="16"
        fill="#7a6d5a"
        letter-spacing="6">VIRTUEOFVAGUE.COM</text>
</svg>
