<svg xmlns="http://www.w3.org/2000/svg" viewBox="0 0 1600 900" preserveAspectRatio="xMidYMid slice" role="img" aria-label="a marionette figure dangling from invisible strings pulled by a hand above">
  <defs>
    <radialGradient id="bg" cx="50%" cy="40%" r="75%">
      <stop offset="0%" stop-color="var(--hero-bg-1)"/>
      <stop offset="100%" stop-color="var(--hero-bg-3)"/>
    </radialGradient>
  </defs>
  <rect width="1600" height="900" fill="url(#bg)"/>
  <g fill="var(--hero-mute)" opacity="0.7">
    <ellipse cx="800" cy="110" rx="78" ry="46"/>
    <rect x="744" y="125" width="16" height="50" rx="8"/>
    <rect x="766" y="125" width="16" height="60" rx="8"/>
    <rect x="788" y="125" width="16" height="66" rx="8"/>
    <rect x="810" y="125" width="16" height="60" rx="8"/>
    <rect x="832" y="125" width="16" height="50" rx="8"/>
    <rect x="770" y="20" width="60" height="95" rx="20"/>
  </g>
  <g stroke="var(--hero-gold)" stroke-opacity="0.55" stroke-width="1" fill="none">
    <line x1="752" y1="175" x2="710" y2="545"/>
    <line x1="774" y1="185" x2="798" y2="438"/>
    <line x1="796" y1="191" x2="798" y2="438"/>
    <line x1="818" y1="185" x2="798" y2="438"/>
    <line x1="840" y1="175" x2="888" y2="545"/>
    <line x1="780" y1="185" x2="760" y2="710"/>
    <line x1="816" y1="185" x2="838" y2="710"/>
  </g>
  <g fill="var(--hero-mute)" opacity="0.8">
    <circle cx="798" cy="460" r="32"/>
    <rect x="775" y="490" width="48" height="115" rx="24"/>
    <rect x="710" y="510" width="16" height="80" rx="8" transform="rotate(-18 718 550)"/>
    <rect x="872" y="510" width="16" height="80" rx="8" transform="rotate(18 880 550)"/>
    <rect x="773" y="600" width="16" height="135" rx="8" transform="rotate(-6 781 668)"/>
    <rect x="811" y="600" width="16" height="135" rx="8" transform="rotate(6 819 668)"/>
  </g>
  <circle cx="798" cy="438" r="4" fill="var(--hero-gold)"/>
  <ellipse cx="800" cy="765" rx="100" ry="9" fill="var(--hero-edge)" opacity="0.55"/>
</svg>
